<svg width="100" height="101" viewBox="0 0 100 101" fill="none" xmlns="http://www.w3.org/2000/svg">
<g filter="url(#filter0_d_429_376)">
<path d="M55.3809 50.5L86.4844 19.3184C86.9727 18.8301 86.6309 17.9805 85.9375 17.9805H77.0996C76.8945 17.9805 76.6895 18.0586 76.5527 18.2051L49.8633 44.9629L41.0547 36.125C42.2754 33.9668 42.9785 31.4766 42.9785 28.8203C42.9785 20.627 36.3281 13.9766 28.1348 13.9766C19.9414 13.9766 13.291 20.627 13.291 28.8203C13.291 37.0137 19.9414 43.6641 28.1348 43.6641C30.8398 43.6641 33.3691 42.9414 35.5469 41.6816L44.3359 50.5L35.5371 59.3184C33.2845 58.0153 30.7273 57.3313 28.125 57.3359C19.9316 57.3359 13.2812 63.9863 13.2812 72.1797C13.2812 80.373 19.9316 87.0234 28.125 87.0234C36.3184 87.0234 42.9688 80.373 42.9688 72.1797C42.9688 69.5234 42.2656 67.0332 41.0449 64.875L49.8535 56.0371L76.543 82.7949C76.6895 82.9414 76.8848 83.0195 77.0898 83.0195H85.9375C86.6309 83.0195 86.9824 82.1797 86.4844 81.6816L55.3809 50.5ZM28.125 36.6328C23.8184 36.6328 20.3125 33.127 20.3125 28.8203C20.3125 24.5137 23.8184 21.0078 28.125 21.0078C32.4316 21.0078 35.9375 24.5137 35.9375 28.8203C35.9375 33.127 32.4316 36.6328 28.125 36.6328ZM28.125 79.9922C23.8184 79.9922 20.3125 76.4863 20.3125 72.1797C20.3125 67.873 23.8184 64.3672 28.125 64.3672C32.4316 64.3672 35.9375 67.873 35.9375 72.1797C35.9375 76.4863 32.4316 79.9922 28.125 79.9922Z" fill="white"/>
</g>
<defs>
<filter id="filter0_d_429_376" x="3.28125" y="3.97656" width="93.4365" height="93.0469" filterUnits="userSpaceOnUse" color-interpolation-filters="sRGB">
<feFlood flood-opacity="0" result="BackgroundImageFix"/>
<feColorMatrix in="SourceAlpha" type="matrix" values="0 0 0 0 0 0 0 0 0 0 0 0 0 0 0 0 0 0 127 0" result="hardAlpha"/>
<feOffset/>
<feGaussianBlur stdDeviation="5"/>
<feComposite in2="hardAlpha" operator="out"/>
<feColorMatrix type="matrix" values="0 0 0 0 1 0 0 0 0 1 0 0 0 0 1 0 0 0 0.2 0"/>
<feBlend mode="normal" in2="BackgroundImageFix" result="effect1_dropShadow_429_376"/>
<feBlend mode="normal" in="SourceGraphic" in2="effect1_dropShadow_429_376" result="shape"/>
</filter>
</defs>
</svg>
