<svg width="100" height="101" viewBox="0 0 100 101" fill="none" xmlns="http://www.w3.org/2000/svg">
<g filter="url(#filter0_d_429_317)">
<path d="M62.752 41.4583C65.1011 40.6764 67.6404 40.6764 69.9895 41.4583C71.5228 41.9708 72.7895 42.8667 74.0187 43.9417C75.1937 44.975 76.527 46.3542 78.1228 48.0042C80.0284 49.9847 81.9367 51.9625 83.8478 53.9375C85.7145 55.8625 86.4645 57.8958 86.4562 60.6125C86.4312 67.525 86.2853 72.2667 84.302 76.1542C82.4037 79.877 79.3758 82.9035 75.652 84.8C70.0478 87.6583 62.8812 86.9583 56.8062 86.9583H43.1978C38.6478 86.9583 35.0395 86.9583 32.1353 86.7208C29.1603 86.4792 26.6478 85.9708 24.352 84.8042C20.6276 82.9066 17.5996 79.8786 15.702 76.1542C14.4728 73.7417 13.9937 71.1167 13.7437 67.9208C13.377 63.0875 17.477 59.175 20.6312 55.9958C21.9103 54.7042 23.2603 53.6208 24.9353 53.0042C27.4766 52.0748 30.2649 52.0748 32.8062 53.0042C34.4812 53.6208 35.8312 54.7042 37.1103 55.9958C38.352 57.2458 39.7437 58.9125 41.427 60.9333C41.5728 61.1125 41.802 61.2792 42.0145 61.0583L54.6187 48.0042C56.2187 46.3542 57.5478 44.975 58.7228 43.9417C59.952 42.8667 61.2228 41.9708 62.752 41.4583ZM62.8478 48.6375C61.8895 49.4792 60.7353 50.6708 59.027 52.4417L46.5103 65.4C45.8681 66.0655 45.0929 66.5882 44.2353 66.934C43.3776 67.2799 42.4566 67.4412 41.5324 67.4074C40.6082 67.3736 39.7015 67.1455 38.8714 66.7378C38.0413 66.3302 37.3064 65.7523 36.7145 65.0417C34.9187 62.8917 33.6978 61.4292 32.6728 60.4C31.6728 59.3875 31.0895 59.0333 30.6603 58.875C29.5047 58.4522 28.2368 58.4522 27.0812 58.875C26.652 59.0333 26.0728 59.3875 25.0687 60.4C23.527 61.95 22.1645 63.6792 20.7687 65.3583C20.0978 66.1625 19.9145 66.5875 19.9895 67.6083C20.1978 70.3417 20.602 72.0042 21.2687 73.3167C22.5668 75.864 24.638 77.9352 27.1853 79.2333C28.4562 79.8792 30.0603 80.2792 32.6437 80.4917C35.2687 80.7042 38.6187 80.7083 43.3353 80.7083H56.6687C61.6353 80.7083 68.1895 81.5917 72.8187 79.2333C75.366 77.9352 77.4372 75.864 78.7353 73.3167C79.9103 71.0042 80.177 67.8875 80.2062 60.5917C80.2103 59.45 80.0353 58.9833 79.2145 58.1375L73.7145 52.4417C72.0062 50.6708 70.8562 49.4833 69.8937 48.6375C67.7478 46.7542 65.0853 46.6708 62.8478 48.6375Z" fill="white"/>
</g>
<g filter="url(#filter1_d_429_317)">
<path d="M43.1962 14.0417H56.8045C61.3545 14.0417 64.9628 14.0417 67.867 14.2792C70.842 14.5208 73.3545 15.0292 75.6545 16.1958C79.378 18.0952 82.4046 21.1247 84.3003 24.85C85.4712 27.1417 85.9795 29.6583 86.2212 32.6333C86.4587 35.5375 86.4587 39.1458 86.4587 43.6958V57.3042C86.4587 61.8542 86.4587 65.4625 86.2212 68.3667C85.9795 71.3417 85.4712 73.8542 84.3045 76.1542C82.4051 79.8777 79.3757 82.9042 75.6503 84.8C73.3587 85.9708 70.842 86.4792 67.867 86.7208C64.9628 86.9583 61.3545 86.9583 56.8045 86.9583H43.1962C38.6462 86.9583 35.0378 86.9583 32.1337 86.7208C29.1587 86.4792 26.6462 85.9708 24.3503 84.8042C20.6259 82.9066 17.5979 79.8786 15.7003 76.1542C14.5295 73.8542 14.0212 71.3417 13.7795 68.3667C13.542 65.4625 13.542 61.8542 13.542 57.3042V43.6958C13.542 39.1458 13.542 35.5375 13.7795 32.6333C14.0212 29.6583 14.5295 27.1458 15.6962 24.85C17.5948 21.1249 20.6244 18.0969 24.3503 16.2C26.642 15.0292 29.1587 14.5208 32.1337 14.2792C35.0378 14.0417 38.6462 14.0417 43.1962 14.0417ZM32.642 20.5083C30.0587 20.7167 28.4545 21.1208 27.1837 21.7667C24.6363 23.0648 22.5652 25.136 21.267 27.6833C20.6212 28.9542 20.2212 30.5583 20.0087 33.1417C19.7962 35.7667 19.792 39.1167 19.792 43.8333V57.1667C19.792 61.8875 19.792 65.2375 20.0087 67.8583C20.217 70.4417 20.6212 72.0458 21.267 73.3167C22.5652 75.864 24.6363 77.9352 27.1837 79.2333C28.4545 79.8792 30.0587 80.2792 32.642 80.4917C35.267 80.7042 38.617 80.7083 43.3337 80.7083H56.667C61.3878 80.7083 64.7378 80.7083 67.3587 80.4917C69.942 80.2833 71.5462 79.8792 72.817 79.2333C75.3644 77.9352 77.4355 75.864 78.7337 73.3167C79.3795 72.0458 79.7795 70.4417 79.992 67.8583C80.2045 65.2333 80.2087 61.8833 80.2087 57.1667V43.8333C80.2087 39.1167 80.2087 35.7625 79.992 33.1417C79.7837 30.5583 79.3795 28.9542 78.7337 27.6833C77.4355 25.136 75.3644 23.0648 72.817 21.7667C71.5462 21.1208 69.942 20.7208 67.3587 20.5083C64.7337 20.2958 61.3837 20.2917 56.667 20.2917H43.3337C38.617 20.2917 35.2628 20.2917 32.642 20.5083Z" fill="white"/>
</g>
<g filter="url(#filter2_d_429_317)">
<path d="M41.6663 32.7917C40.285 32.7917 38.9602 33.3404 37.9835 34.3172C37.0067 35.2939 36.458 36.6187 36.458 38C36.458 39.3813 37.0067 40.7061 37.9835 41.6829C38.9602 42.6596 40.285 43.2083 41.6663 43.2083C43.0477 43.2083 44.3724 42.6596 45.3492 41.6829C46.3259 40.7061 46.8747 39.3813 46.8747 38C46.8747 36.6187 46.3259 35.2939 45.3492 34.3172C44.3724 33.3404 43.0477 32.7917 41.6663 32.7917ZM30.208 38C30.208 34.9611 31.4152 32.0466 33.5641 29.8977C35.7129 27.7489 38.6274 26.5417 41.6663 26.5417C44.7053 26.5417 47.6198 27.7489 49.7686 29.8977C51.9175 32.0466 53.1247 34.9611 53.1247 38C53.1247 41.0389 51.9175 43.9534 49.7686 46.1023C47.6198 48.2511 44.7053 49.4583 41.6663 49.4583C38.6274 49.4583 35.7129 48.2511 33.5641 46.1023C31.4152 43.9534 30.208 41.0389 30.208 38Z" fill="white"/>
</g>
<defs>
<filter id="filter0_d_429_317" x="3.7207" y="30.8719" width="92.7354" height="66.1621" filterUnits="userSpaceOnUse" color-interpolation-filters="sRGB">
<feFlood flood-opacity="0" result="BackgroundImageFix"/>
<feColorMatrix in="SourceAlpha" type="matrix" values="0 0 0 0 0 0 0 0 0 0 0 0 0 0 0 0 0 0 127 0" result="hardAlpha"/>
<feOffset/>
<feGaussianBlur stdDeviation="5"/>
<feComposite in2="hardAlpha" operator="out"/>
<feColorMatrix type="matrix" values="0 0 0 0 1 0 0 0 0 1 0 0 0 0 1 0 0 0 0.3 0"/>
<feBlend mode="normal" in2="BackgroundImageFix" result="effect1_dropShadow_429_317"/>
<feBlend mode="normal" in="SourceGraphic" in2="effect1_dropShadow_429_317" result="shape"/>
</filter>
<filter id="filter1_d_429_317" x="3.54199" y="4.04167" width="92.917" height="92.9167" filterUnits="userSpaceOnUse" color-interpolation-filters="sRGB">
<feFlood flood-opacity="0" result="BackgroundImageFix"/>
<feColorMatrix in="SourceAlpha" type="matrix" values="0 0 0 0 0 0 0 0 0 0 0 0 0 0 0 0 0 0 127 0" result="hardAlpha"/>
<feOffset/>
<feGaussianBlur stdDeviation="5"/>
<feComposite in2="hardAlpha" operator="out"/>
<feColorMatrix type="matrix" values="0 0 0 0 1 0 0 0 0 1 0 0 0 0 1 0 0 0 0.3 0"/>
<feBlend mode="normal" in2="BackgroundImageFix" result="effect1_dropShadow_429_317"/>
<feBlend mode="normal" in="SourceGraphic" in2="effect1_dropShadow_429_317" result="shape"/>
</filter>
<filter id="filter2_d_429_317" x="20.208" y="16.5417" width="42.917" height="42.9167" filterUnits="userSpaceOnUse" color-interpolation-filters="sRGB">
<feFlood flood-opacity="0" result="BackgroundImageFix"/>
<feColorMatrix in="SourceAlpha" type="matrix" values="0 0 0 0 0 0 0 0 0 0 0 0 0 0 0 0 0 0 127 0" result="hardAlpha"/>
<feOffset/>
<feGaussianBlur stdDeviation="5"/>
<feComposite in2="hardAlpha" operator="out"/>
<feColorMatrix type="matrix" values="0 0 0 0 1 0 0 0 0 1 0 0 0 0 1 0 0 0 0.3 0"/>
<feBlend mode="normal" in2="BackgroundImageFix" result="effect1_dropShadow_429_317"/>
<feBlend mode="normal" in="SourceGraphic" in2="effect1_dropShadow_429_317" result="shape"/>
</filter>
</defs>
</svg>
