<svg width="104" height="105" viewBox="0 0 104 105" fill="none" xmlns="http://www.w3.org/2000/svg">
<g filter="url(#filter0_d_429_434)">
<path d="M18.6654 24.375C18.6654 21.5 20.9987 19.1667 23.8737 19.1667H35.332C35.9264 19.1667 36.5138 19.0396 37.055 18.7938C37.5961 18.5481 38.0785 18.1894 38.4696 17.7418C38.8607 17.2943 39.1515 16.7683 39.3225 16.1991C39.4936 15.6299 39.5408 15.0307 39.4612 14.4417C39.531 13.9959 39.5034 13.5402 39.3803 13.106C39.2572 12.6719 39.0416 12.2695 38.7482 11.9267C38.4548 11.5838 38.0907 11.3085 37.6808 11.1198C37.2709 10.9311 36.825 10.8333 36.3737 10.8334H23.8737C20.2822 10.8334 16.8378 12.2601 14.2983 14.7996C11.7587 17.3392 10.332 20.7836 10.332 24.375V36.875C10.332 37.3263 10.4297 37.7722 10.6185 38.1821C10.8072 38.592 11.0825 38.9562 11.4253 39.2495C11.7682 39.5429 12.1706 39.7586 12.6047 39.8817C13.0389 40.0047 13.4945 40.0323 13.9404 39.9625C14.1237 39.9875 14.3098 40 14.4987 40C15.6038 40 16.6636 39.561 17.445 38.7796C18.2264 37.9982 18.6654 36.9384 18.6654 35.8334V24.375ZM18.6654 80.625C18.6654 83.5 20.9987 85.8334 23.8737 85.8334H35.332C35.9264 85.8333 36.5138 85.9605 37.055 86.2062C37.5961 86.452 38.0785 86.8107 38.4696 87.2582C38.8607 87.7057 39.1515 88.2318 39.3225 88.801C39.4936 89.3702 39.5408 89.9694 39.4612 90.5584C39.531 91.0042 39.5034 91.4598 39.3803 91.894C39.2572 92.3282 39.0416 92.7305 38.7482 93.0734C38.4548 93.4163 38.0907 93.6915 37.6808 93.8803C37.2709 94.069 36.825 94.1667 36.3737 94.1667H23.8737C22.0954 94.1667 20.3345 93.8164 18.6915 93.1359C17.0486 92.4554 15.5558 91.4579 14.2983 90.2004C13.0408 88.943 12.0434 87.4501 11.3628 85.8072C10.6823 84.1642 10.332 82.4033 10.332 80.625V68.125C10.332 67.6738 10.4297 67.2278 10.6185 66.8179C10.8072 66.4081 11.0825 66.0439 11.4253 65.7505C11.7682 65.4571 12.1706 65.2415 12.6047 65.1184C13.0389 64.9953 13.4945 64.9677 13.9404 65.0375C14.1237 65.0125 14.3098 65 14.4987 65C15.6038 65 16.6636 65.439 17.445 66.2204C18.2264 67.0018 18.6654 68.0616 18.6654 69.1667V80.625ZM80.1237 19.1667C82.9987 19.1667 85.332 21.5 85.332 24.375V35.8334C85.332 36.4277 85.4592 37.0152 85.7049 37.5563C85.9507 38.0975 86.3093 38.5798 86.7569 38.9709C87.2044 39.362 87.7304 39.6528 88.2996 39.8238C88.8688 39.9949 89.468 40.0422 90.057 39.9625C90.5029 40.0323 90.9585 40.0047 91.3927 39.8817C91.8268 39.7586 92.2292 39.5429 92.5721 39.2495C92.9149 38.9562 93.1902 38.592 93.3789 38.1821C93.5677 37.7722 93.6654 37.3263 93.6654 36.875V24.375C93.6654 22.5967 93.3151 20.8358 92.6346 19.1929C91.954 17.5499 90.9566 16.0571 89.6991 14.7996C88.4416 13.5422 86.9488 12.5447 85.3059 11.8642C83.6629 11.1836 81.902 10.8334 80.1237 10.8334H67.6237C67.1724 10.8333 66.7265 10.9311 66.3166 11.1198C65.9067 11.3085 65.5426 11.5838 65.2492 11.9267C64.9558 12.2695 64.7401 12.6719 64.6171 13.106C64.494 13.5402 64.4664 13.9959 64.5362 14.4417C64.4566 15.0307 64.5038 15.6299 64.6749 16.1991C64.8459 16.7683 65.1367 17.2943 65.5278 17.7418C65.9189 18.1894 66.4012 18.5481 66.9424 18.7938C67.4836 19.0396 68.071 19.1667 68.6654 19.1667H80.1237ZM85.332 80.625C85.332 83.5 82.9987 85.8334 80.1237 85.8334H68.6654C68.071 85.8333 67.4836 85.9605 66.9424 86.2062C66.4012 86.452 65.9189 86.8107 65.5278 87.2582C65.1367 87.7057 64.8459 88.2318 64.6749 88.801C64.5038 89.3702 64.4566 89.9694 64.5362 90.5584C64.4664 91.0042 64.494 91.4598 64.6171 91.894C64.7401 92.3282 64.9558 92.7305 65.2492 93.0734C65.5426 93.4163 65.9067 93.6915 66.3166 93.8803C66.7265 94.069 67.1724 94.1667 67.6237 94.1667H80.1237C81.902 94.1667 83.6629 93.8164 85.3059 93.1359C86.9488 92.4554 88.4416 91.4579 89.6991 90.2004C90.9566 88.943 91.954 87.4501 92.6346 85.8072C93.3151 84.1642 93.6654 82.4033 93.6654 80.625V68.125C93.6654 67.6738 93.5677 67.2278 93.3789 66.8179C93.1902 66.4081 92.9149 66.0439 92.5721 65.7505C92.2292 65.4571 91.8268 65.2415 91.3927 65.1184C90.9585 64.9953 90.5029 64.9677 90.057 65.0375C89.468 64.9579 88.8688 65.0052 88.2996 65.1762C87.7304 65.3472 87.2044 65.6381 86.7569 66.0292C86.3093 66.4203 85.9507 66.9026 85.7049 67.4437C85.4592 67.9849 85.332 68.5723 85.332 69.1667V80.625ZM31.1654 35.8334C31.1654 34.7283 31.6044 33.6685 32.3858 32.8871C33.1672 32.1057 34.227 31.6667 35.332 31.6667H68.6654C69.7704 31.6667 70.8302 32.1057 71.6116 32.8871C72.393 33.6685 72.832 34.7283 72.832 35.8334C72.832 36.9384 72.393 37.9982 71.6116 38.7796C70.8302 39.561 69.7704 40 68.6654 40H35.332C34.227 40 33.1672 39.561 32.3858 38.7796C31.6044 37.9982 31.1654 36.9384 31.1654 35.8334ZM35.332 48.3334C34.227 48.3334 33.1672 48.7723 32.3858 49.5537C31.6044 50.3351 31.1654 51.395 31.1654 52.5C31.1654 53.6051 31.6044 54.6649 32.3858 55.4463C33.1672 56.2277 34.227 56.6667 35.332 56.6667H68.6654C69.7704 56.6667 70.8302 56.2277 71.6116 55.4463C72.393 54.6649 72.832 53.6051 72.832 52.5C72.832 51.395 72.393 50.3351 71.6116 49.5537C70.8302 48.7723 69.7704 48.3334 68.6654 48.3334H35.332ZM31.1654 69.1667C31.1654 68.0616 31.6044 67.0018 32.3858 66.2204C33.1672 65.439 34.227 65 35.332 65H51.9987C53.1038 65 54.1636 65.439 54.945 66.2204C55.7264 67.0018 56.1654 68.0616 56.1654 69.1667C56.1654 70.2718 55.7264 71.3316 54.945 72.113C54.1636 72.8944 53.1038 73.3334 51.9987 73.3334H35.332C34.227 73.3334 33.1672 72.8944 32.3858 72.113C31.6044 71.3316 31.1654 70.2718 31.1654 69.1667Z" fill="white"/>
</g>
<defs>
<filter id="filter0_d_429_434" x="0.332031" y="0.833359" width="103.334" height="103.333" filterUnits="userSpaceOnUse" color-interpolation-filters="sRGB">
<feFlood flood-opacity="0" result="BackgroundImageFix"/>
<feColorMatrix in="SourceAlpha" type="matrix" values="0 0 0 0 0 0 0 0 0 0 0 0 0 0 0 0 0 0 127 0" result="hardAlpha"/>
<feOffset/>
<feGaussianBlur stdDeviation="5"/>
<feComposite in2="hardAlpha" operator="out"/>
<feColorMatrix type="matrix" values="0 0 0 0 1 0 0 0 0 1 0 0 0 0 1 0 0 0 0.2 0"/>
<feBlend mode="normal" in2="BackgroundImageFix" result="effect1_dropShadow_429_434"/>
<feBlend mode="normal" in="SourceGraphic" in2="effect1_dropShadow_429_434" result="shape"/>
</filter>
</defs>
</svg>
