<svg width="100" height="101" viewBox="0 0 100 101" fill="none" xmlns="http://www.w3.org/2000/svg">
<g filter="url(#filter0_d_429_404)">
<path d="M50 13C51.0206 13.0001 52.0056 13.3748 52.7682 14.053C53.5309 14.7311 54.0181 15.6656 54.1375 16.6792L54.1667 17.1667V83.8333C54.1655 84.8953 53.7588 85.9168 53.0298 86.689C52.3008 87.4613 51.3044 87.926 50.2442 87.9882C49.184 88.0504 48.1401 87.7055 47.3257 87.0239C46.5113 86.3423 45.9879 85.3754 45.8625 84.3208L45.8333 83.8333V17.1667C45.8333 16.0616 46.2723 15.0018 47.0537 14.2204C47.8351 13.439 48.8949 13 50 13ZM33.3333 25.5C34.4384 25.5 35.4982 25.939 36.2796 26.7204C37.061 27.5018 37.5 28.5616 37.5 29.6667V71.3333C37.5 72.4384 37.061 73.4982 36.2796 74.2796C35.4982 75.061 34.4384 75.5 33.3333 75.5C32.2283 75.5 31.1685 75.061 30.3871 74.2796C29.6057 73.4982 29.1667 72.4384 29.1667 71.3333V29.6667C29.1667 28.5616 29.6057 27.5018 30.3871 26.7204C31.1685 25.939 32.2283 25.5 33.3333 25.5ZM66.6667 25.5C67.7717 25.5 68.8315 25.939 69.6129 26.7204C70.3943 27.5018 70.8333 28.5616 70.8333 29.6667V71.3333C70.8333 72.4384 70.3943 73.4982 69.6129 74.2796C68.8315 75.061 67.7717 75.5 66.6667 75.5C65.5616 75.5 64.5018 75.061 63.7204 74.2796C62.939 73.4982 62.5 72.4384 62.5 71.3333V29.6667C62.5 28.5616 62.939 27.5018 63.7204 26.7204C64.5018 25.939 65.5616 25.5 66.6667 25.5ZM16.6667 38C17.7717 38 18.8315 38.439 19.6129 39.2204C20.3943 40.0018 20.8333 41.0616 20.8333 42.1667V58.8333C20.8333 59.9384 20.3943 60.9982 19.6129 61.7796C18.8315 62.561 17.7717 63 16.6667 63C15.5616 63 14.5018 62.561 13.7204 61.7796C12.939 60.9982 12.5 59.9384 12.5 58.8333V42.1667C12.5 41.0616 12.939 40.0018 13.7204 39.2204C14.5018 38.439 15.5616 38 16.6667 38ZM83.3333 38C84.3539 38.0001 85.3389 38.3748 86.1015 39.053C86.8642 39.7311 87.3514 40.6656 87.4708 41.6792L87.5 42.1667V58.8333C87.4988 59.8953 87.0922 60.9168 86.3631 61.689C85.6341 62.4613 84.6377 62.926 83.5775 62.9882C82.5173 63.0505 81.4734 62.7055 80.659 62.0239C79.8446 61.3423 79.3213 60.3754 79.1958 59.3208L79.1667 58.8333V42.1667C79.1667 41.0616 79.6056 40.0018 80.387 39.2204C81.1684 38.439 82.2283 38 83.3333 38Z" fill="white"/>
</g>
<defs>
<filter id="filter0_d_429_404" x="2.5" y="3" width="95" height="94.9954" filterUnits="userSpaceOnUse" color-interpolation-filters="sRGB">
<feFlood flood-opacity="0" result="BackgroundImageFix"/>
<feColorMatrix in="SourceAlpha" type="matrix" values="0 0 0 0 0 0 0 0 0 0 0 0 0 0 0 0 0 0 127 0" result="hardAlpha"/>
<feOffset/>
<feGaussianBlur stdDeviation="5"/>
<feComposite in2="hardAlpha" operator="out"/>
<feColorMatrix type="matrix" values="0 0 0 0 1 0 0 0 0 1 0 0 0 0 1 0 0 0 0.2 0"/>
<feBlend mode="normal" in2="BackgroundImageFix" result="effect1_dropShadow_429_404"/>
<feBlend mode="normal" in="SourceGraphic" in2="effect1_dropShadow_429_404" result="shape"/>
</filter>
</defs>
</svg>
